<svg width="36" height="35" viewBox="0 0 36 35" fill="none" xmlns="http://www.w3.org/2000/svg">
<path d="M15.807 15.225L5.51795 1.05C4.85414 0.35 4.02437 0 3.1946 0C2.36484 0 1.53507 0.35 0.871255 1.05C-0.290418 2.45 -0.290418 4.55 0.871255 5.95L9.00297 17.5L0.871255 29.05C-0.290418 30.45 -0.290418 32.55 0.871255 33.95C1.53507 34.65 2.36484 35 3.1946 35C4.02437 35 4.85414 34.65 5.51795 33.95L15.807 19.775C16.9687 18.725 16.9687 16.625 15.807 15.225Z" fill="#FF3F3A"/>
<path d="M20.1929 15.225L30.482 1.05C31.1459 0.35 31.9756 0 32.8054 0C33.6352 0 34.4649 0.35 35.1287 1.05C36.2904 2.45 36.2904 4.55 35.1287 5.95L26.997 17.5L35.1287 29.05C36.2904 30.45 36.2904 32.55 35.1287 33.95C34.4649 34.65 33.6352 35 32.8054 35C31.9756 35 31.1459 34.65 30.482 33.95L20.1929 19.775C19.0312 18.725 19.0312 16.625 20.1929 15.225Z" fill="#FF3F3A"/>
</svg>
